<?xml version="1.0" encoding="utf-8"?>
<!-- Generator: Adobe Illustrator 20.1.0, SVG Export Plug-In . SVG Version: 6.00 Build 0)  -->
<svg version="1.1" id="Laag_1" xmlns="http://www.w3.org/2000/svg" xmlns:xlink="http://www.w3.org/1999/xlink" x="0px" y="0px"
	 viewBox="0 0 18 19.6" style="enable-background:new 0 0 18 19.6;" xml:space="preserve">
<style type="text/css">
	.st0{fill:#00D66C;}
</style>
<title>icon-search</title>
<desc>Created with Sketch.</desc>
<g>
	<g>
		<path class="st0" d="M12.1,7.8c0-1.2-0.4-2.2-1.3-3S9,3.5,7.8,3.5s-2.2,0.4-3,1.3C4,5.6,3.5,6.7,3.5,7.8s0.4,2.2,1.3,3
			c0.8,0.8,1.9,1.3,3,1.3s2.2-0.4,3-1.3S12.1,9,12.1,7.8L12.1,7.8L12.1,7.8z M17,15.8c0,0.3-0.1,0.6-0.4,0.9S16.1,17,15.8,17
			s-0.6-0.1-0.9-0.4l-3.3-3.3c-1.1,0.8-2.4,1.2-3.8,1.2c-0.9,0-1.8-0.2-2.6-0.5S3.6,13.2,3,12.6c-0.6-0.6-1.1-1.3-1.4-2.2
			C1.2,9.6,1,8.7,1,7.8S1.2,6,1.5,5.1S2.4,3.6,3,3s1.3-1.1,2.2-1.4S6.9,1,7.8,1s1.8,0.2,2.6,0.5C11.2,1.9,12,2.4,12.6,3
			s1.1,1.3,1.4,2.2c0.4,0.8,0.5,1.7,0.5,2.6c0,1.4-0.4,2.7-1.2,3.8l3.3,3.3C16.9,15.1,17,15.4,17,15.8L17,15.8L17,15.8z"/>
	</g>
</g>
</svg>
