<svg xmlns="http://www.w3.org/2000/svg" viewBox="0 0 13.4 13.43"><defs><style>.cls-1{fill:#51b266;}.cls-2{fill:#fff;}</style></defs><title>Transavia-logo</title><g id="Laag_2" data-name="Laag 2"><g id="Laag_1-2" data-name="Laag 1"><path class="cls-1" d="M13.4,6.72A6.66,6.66,0,0,0,6.7,0,6.66,6.66,0,0,0,0,6.72a6.66,6.66,0,0,0,6.7,6.71,6.66,6.66,0,0,0,6.7-6.71h0Z"/><path class="cls-2" d="M9.66,7.68H9.28c-.38,0-.54.2-.59.59a1.36,1.36,0,0,1-1.4,1.2A1.4,1.4,0,0,1,5.88,7.92V5.77a.77.77,0,0,0,0-.23.7.7,0,0,0,.29.06h2A.54.54,0,0,0,8.71,5V4.83a.54.54,0,0,0-.59-.59H7V3a.54.54,0,0,0-.59-.59H6.14A.54.54,0,0,0,5.54,3V5a.72.72,0,0,0,0,.23.71.71,0,0,0-.29-.05h-2a.54.54,0,0,0-.59.59v.18a.54.54,0,0,0,.59.59H4.43V7.92a2.75,2.75,0,0,0,2.87,2.95,2.79,2.79,0,0,0,2.91-2.6.49.49,0,0,0-.54-.59Z"/></g></g></svg>